<svg width="89" height="83" viewBox="0 0 89 83" fill="none" xmlns="http://www.w3.org/2000/svg">
<line x1="55.1167" y1="4.64723" x2="88.9999" y2="4.64723" stroke="#B154A8" stroke-opacity="0.51" stroke-width="2"/>
<line x1="85.708" y1="-2.18557e-07" x2="85.708" y2="27.7843" stroke="#B154A8" stroke-opacity="0.51" stroke-width="2"/>
<line x1="10.4873" y1="49.9213" x2="10.4873" y2="82.6751" stroke="#B154A8" stroke-opacity="0.51" stroke-width="2"/>
<line x1="-2.62268e-07" y1="73.5432" x2="35.2386" y2="73.5431" stroke="#B154A8" stroke-opacity="0.51" stroke-width="2"/>
<path d="M59.1487 42.0743C59.1487 35.404 53.7401 30 47.0743 30C40.404 30 35 35.404 35 42.0743C35 48.0994 39.4139 53.0952 45.1877 54V45.5653H42.1216V42.0751H45.1877V39.4135C45.1877 36.3881 46.9875 34.7173 49.7465 34.7173C51.0679 34.7173 52.4512 34.9527 52.4512 34.9527V37.9238H50.926C49.4288 37.9238 48.9609 38.8558 48.9609 39.8104V42.0743H52.3093L51.7712 45.5646H48.9609V53.9992C54.7302 53.0944 59.1487 48.0987 59.1487 42.0736V42.0743Z" fill="#B154A8" fill-opacity="0.51"/>
</svg>
