<svg width="136" height="127" viewBox="0 0 136 127" fill="none" xmlns="http://www.w3.org/2000/svg">
<line x1="51.7766" y1="118.706" x2="-3.83218e-05" y2="118.706" stroke="#38D1AC" stroke-width="2"/>
<line x1="5.55835" y1="126.335" x2="5.55835" y2="83.8782" stroke="#38D1AC" stroke-width="2"/>
<line x1="120.502" y1="50.0508" x2="120.502" y2="1.9036e-05" stroke="#38D1AC" stroke-width="2"/>
<line x1="136" y1="13.4264" x2="82.1523" y2="13.4264" stroke="#38D1AC" stroke-width="2"/>
<path d="M62.997 61.9984C60.7935 61.9984 58.9953 63.7966 58.9953 66.0001C58.9953 68.2036 60.7935 70.0018 62.997 70.0018C65.2005 70.0018 66.9987 68.2036 66.9987 66.0001C66.9987 63.7966 65.2005 61.9984 62.997 61.9984ZM74.9991 66.0001C74.9991 64.3429 75.0141 62.7008 74.9211 61.0467C74.828 59.1254 74.3897 57.4203 72.9847 56.0153C71.5768 54.6074 69.8746 54.1721 67.9533 54.079C66.2962 53.9859 64.6541 54.001 63 54.001C61.3429 54.001 59.7008 53.9859 58.0467 54.079C56.1254 54.1721 54.4202 54.6104 53.0153 56.0153C51.6073 57.4233 51.172 59.1254 51.0789 61.0467C50.9859 62.7038 51.0009 64.3459 51.0009 66.0001C51.0009 67.6542 50.9859 69.2993 51.0789 70.9534C51.172 72.8747 51.6103 74.5799 53.0153 75.9848C54.4232 77.3928 56.1254 77.8281 58.0467 77.9211C59.7038 78.0142 61.3459 77.9992 63 77.9992C64.6571 77.9992 66.2992 78.0142 67.9533 77.9211C69.8746 77.8281 71.5798 77.3898 72.9847 75.9848C74.3927 74.5769 74.828 72.8747 74.9211 70.9534C75.0171 69.2993 74.9991 67.6572 74.9991 66.0001ZM62.997 72.1572C59.5897 72.1572 56.8398 69.4074 56.8398 66.0001C56.8398 62.5928 59.5897 59.8429 62.997 59.8429C66.4043 59.8429 69.1542 62.5928 69.1542 66.0001C69.1542 69.4074 66.4043 72.1572 62.997 72.1572ZM69.4063 61.0287C68.6108 61.0287 67.9684 60.3863 67.9684 59.5907C67.9684 58.7952 68.6108 58.1528 69.4063 58.1528C70.2019 58.1528 70.8443 58.7952 70.8443 59.5907C70.8445 59.7796 70.8075 59.9667 70.7353 60.1413C70.6631 60.3159 70.5572 60.4745 70.4237 60.6081C70.2901 60.7416 70.1315 60.8475 69.9569 60.9197C69.7823 60.9919 69.5952 61.0289 69.4063 61.0287Z" fill="#38D1AC" fill-opacity="0.31"/>
</svg>
