<svg width="513" height="447" viewBox="0 0 513 447" fill="none" xmlns="http://www.w3.org/2000/svg">
<line x1="244" y1="24" x2="394" y2="24" stroke="#38D1AC" stroke-width="2"/>
<line x1="376" y1="-4.37114e-08" x2="376" y2="123" stroke="#38D1AC" stroke-width="2"/>
<line x1="43" y1="221" x2="43" y2="366" stroke="#38D1AC" stroke-width="2"/>
<line x1="-8.74228e-08" y1="329" x2="156" y2="329" stroke="#38D1AC" stroke-width="2"/>
<line x1="331.777" y1="438.706" x2="280" y2="438.706" stroke="#38D1AC" stroke-width="2"/>
<line x1="285.558" y1="446.335" x2="285.558" y2="403.878" stroke="#38D1AC" stroke-width="2"/>
<line x1="400.503" y1="370.051" x2="400.503" y2="320" stroke="#38D1AC" stroke-width="2"/>
<line x1="416" y1="333.426" x2="362.152" y2="333.426" stroke="#38D1AC" stroke-width="2"/>
<line x1="444.117" y1="193.647" x2="478" y2="193.647" stroke="#B3B9B8" stroke-width="2"/>
<line x1="474.708" y1="189" x2="474.708" y2="216.784" stroke="#B3B9B8" stroke-width="2"/>
<line x1="399.487" y1="238.921" x2="399.487" y2="271.675" stroke="#B3B9B8" stroke-width="2"/>
<line x1="389" y1="262.543" x2="424.239" y2="262.543" stroke="#B3B9B8" stroke-width="2"/>
<line x1="479.117" y1="336.647" x2="513" y2="336.647" stroke="#B3B9B8" stroke-width="2"/>
<line x1="509.708" y1="332" x2="509.708" y2="359.784" stroke="#B3B9B8" stroke-width="2"/>
<line x1="434.487" y1="381.921" x2="434.487" y2="414.675" stroke="#B3B9B8" stroke-width="2"/>
<line x1="424" y1="405.543" x2="459.239" y2="405.543" stroke="#B3B9B8" stroke-width="2"/>
</svg>
