<svg width="107" height="30" viewBox="0 0 107 30" fill="none" xmlns="http://www.w3.org/2000/svg">
<line x1="18.5" y1="11" x2="18.5" y2="20" stroke="#38D1AC"/>
<line x1="14" y1="15.5" x2="23" y2="15.5" stroke="#38D1AC"/>
<rect x="1" y="1" width="35" height="28" stroke="#38D1AC" stroke-width="2" stroke-dasharray="5000 2000"/>
<path d="M57.776 12.56H54.064V10.8H63.568V12.56H59.856V22H57.776V12.56ZM95.2705 20.24V22H85.7185V20.608L92.3105 12.56H85.8305V10.8H95.0625V12.192L88.4705 20.24H95.2705ZM105.88 20.24V22H96.3279V20.608L102.92 12.56H96.4399V10.8H105.672V12.192L99.0799 20.24H105.88Z" fill="#FAFAFA"/>
<path d="M73.529 20.256V22H65.129V10.8H73.305V12.544H67.209V15.456H72.617V17.168H67.209V20.256H73.529ZM84.2478 20.256V22H75.8478V10.8H84.0238V12.544H77.9278V15.456H83.3358V17.168H77.9278V20.256H84.2478Z" fill="#38D1AC"/>
</svg>
