<svg width="107" height="30" viewBox="0 0 107 30" fill="none" xmlns="http://www.w3.org/2000/svg">
<path d="M57.776 10.56H54.064V8.8H63.568V10.56H59.856V20H57.776V10.56ZM95.2705 18.24V20H85.7185V18.608L92.3105 10.56H85.8305V8.8H95.0625V10.192L88.4705 18.24H95.2705ZM105.88 18.24V20H96.3279V18.608L102.92 10.56H96.4399V8.8H105.672V10.192L99.0799 18.24H105.88Z" fill="#FAFAFA"/>
<path d="M73.529 18.256V20H65.129V8.8H73.305V10.544H67.209V13.456H72.617V15.168H67.209V18.256H73.529ZM84.2478 18.256V20H75.8478V8.8H84.0238V10.544H77.9278V13.456H83.3358V15.168H77.9278V18.256H84.2478Z" fill="#38D1AC"/>
<rect width="13" height="3" fill="#38D1AC"/>
<rect y="11" width="8" height="3" transform="rotate(-90 0 11)" fill="#38D1AC"/>
<rect width="13" height="3" transform="matrix(1 0 0 -1 0 30)" fill="#38D1AC"/>
<rect width="8" height="3" transform="matrix(0 1 1 0 0 19)" fill="#38D1AC"/>
<rect x="37" y="30" width="13" height="3" transform="rotate(-180 37 30)" fill="#38D1AC"/>
<rect x="37" y="19" width="8" height="3" transform="rotate(90 37 19)" fill="#38D1AC"/>
<rect width="13.3408" height="3" transform="matrix(-1 0 0 1 37.152 0.0184937)" fill="#38D1AC"/>
<rect width="8" height="3.07864" transform="matrix(0 -1 -1 0 37.152 11.0185)" fill="#38D1AC"/>
<rect x="17" y="11" width="2" height="8" fill="#38D1AC"/>
<rect x="14" y="16" width="2" height="8" transform="rotate(-90 14 16)" fill="#38D1AC"/>
</svg>
