<svg width="89" height="83" viewBox="0 0 89 83" fill="none" xmlns="http://www.w3.org/2000/svg">
<line x1="55.1167" y1="4.64723" x2="88.9999" y2="4.64723" stroke="#B154A8" stroke-opacity="0.51" stroke-width="2"/>
<line x1="85.708" y1="-2.18557e-07" x2="85.708" y2="27.7843" stroke="#B154A8" stroke-opacity="0.51" stroke-width="2"/>
<line x1="10.4873" y1="49.9213" x2="10.4873" y2="82.6751" stroke="#B154A8" stroke-opacity="0.51" stroke-width="2"/>
<line x1="-2.62268e-07" y1="73.5432" x2="35.2386" y2="73.5431" stroke="#B154A8" stroke-opacity="0.51" stroke-width="2"/>
<path d="M47 31C40.3732 31 35 36.3732 35 43C35 49.6268 40.3732 55 47 55C53.6268 55 59 49.6268 59 43C59 36.3732 53.6268 31 47 31ZM52.767 40.0456C52.775 40.1714 52.775 40.3027 52.775 40.4313C52.775 44.3634 49.7804 48.8929 44.308 48.8929C42.6205 48.8929 41.0562 48.4027 39.7384 47.5589C39.9795 47.5857 40.2098 47.5964 40.4563 47.5964C41.8491 47.5964 43.1295 47.125 44.15 46.3268C42.8429 46.3 41.7446 45.4429 41.3696 44.2643C41.8277 44.3313 42.2402 44.3313 42.7116 44.2107C42.0386 44.074 41.4336 43.7085 40.9995 43.1762C40.5654 42.644 40.329 41.9779 40.3304 41.2911V41.2536C40.7241 41.4759 41.1875 41.6125 41.6723 41.6313C41.2648 41.3596 40.9305 40.9917 40.6992 40.5599C40.4679 40.1282 40.3468 39.646 40.3464 39.1563C40.3464 38.6018 40.4911 38.0956 40.7509 37.6563C41.498 38.5759 42.4302 39.3281 43.487 39.8639C44.5437 40.3996 45.7014 40.707 46.8848 40.7661C46.4643 38.7438 47.975 37.1072 49.7911 37.1072C50.6482 37.1072 51.4196 37.4661 51.9634 38.0447C52.6357 37.9188 53.2786 37.667 53.8518 37.3295C53.6295 38.0179 53.1634 38.5991 52.5446 38.9661C53.1446 38.9018 53.7232 38.7357 54.2589 38.5027C53.8545 39.0973 53.3482 39.625 52.767 40.0456V40.0456Z" fill="#B154A8" fill-opacity="0.51"/>
</svg>
